<svg xmlns="http://www.w3.org/2000/svg" xmlns:xlink="http://www.w3.org/1999/xlink" contentStyleType="text/css" data-diagram-type="TIMING" height="528px" preserveAspectRatio="none" style="width:1474px;height:528px;background:#FFFFFF;" version="1.1" viewBox="0 0 1474 528" width="1474px" zoomAndPan="magnify"><defs/><g><line style="stroke:#333333;stroke-width:1;" x1="20" x2="20" y1="20" y2="470.375"/><line style="stroke:#333333;stroke-width:1;" x1="1440" x2="1440" y1="20" y2="470.375"/><line style="stroke:#333333;stroke-width:1;stroke-dasharray:6,10;" x1="30" x2="30" y1="20" y2="470.375"/><line style="stroke:#333333;stroke-width:1;stroke-dasharray:6,10;" x1="130" x2="130" y1="20" y2="470.375"/><line style="stroke:#333333;stroke-width:1;stroke-dasharray:6,10;" x1="230" x2="230" y1="20" y2="470.375"/><line style="stroke:#333333;stroke-width:1;stroke-dasharray:6,10;" x1="330" x2="330" y1="20" y2="470.375"/><line style="stroke:#333333;stroke-width:1;stroke-dasharray:6,10;" x1="430" x2="430" y1="20" y2="470.375"/><line style="stroke:#333333;stroke-width:1;stroke-dasharray:6,10;" x1="530" x2="530" y1="20" y2="470.375"/><line style="stroke:#333333;stroke-width:1;stroke-dasharray:6,10;" x1="630" x2="630" y1="20" y2="470.375"/><line style="stroke:#333333;stroke-width:1;stroke-dasharray:6,10;" x1="730" x2="730" y1="20" y2="470.375"/><line style="stroke:#333333;stroke-width:1;stroke-dasharray:6,10;" x1="830" x2="830" y1="20" y2="470.375"/><line style="stroke:#333333;stroke-width:1;stroke-dasharray:6,10;" x1="930" x2="930" y1="20" y2="470.375"/><line style="stroke:#333333;stroke-width:1;stroke-dasharray:6,10;" x1="1030" x2="1030" y1="20" y2="470.375"/><line style="stroke:#333333;stroke-width:1;stroke-dasharray:6,10;" x1="1130" x2="1130" y1="20" y2="470.375"/><line style="stroke:#333333;stroke-width:1;stroke-dasharray:6,10;" x1="1230" x2="1230" y1="20" y2="470.375"/><line style="stroke:#333333;stroke-width:1;stroke-dasharray:6,10;" x1="1330" x2="1330" y1="20" y2="470.375"/><line style="stroke:#333333;stroke-width:1;stroke-dasharray:6,10;" x1="1430" x2="1430" y1="20" y2="470.375"/><line style="stroke:#333333;stroke-width:1;" x1="20" x2="1440" y1="20" y2="20"/><text fill="#333333" font-family="sans-serif" font-size="28" font-weight="bold" lengthAdjust="spacing" textLength="75.5234" x="30" y="45.9902">Door</text><line style="stroke:#333333;stroke-width:1;" x1="20" x2="107.5234" y1="54.5938" y2="54.5938"/><line style="stroke:#333333;stroke-width:1;" x1="107.5234" x2="127.5234" y1="54.5938" y2="20"/><polygon fill="#E2E2F0" points="54,64.5938,106,64.5938,130,88.5938,106,112.5938,54,112.5938,30,88.5938" style="stroke:#006400;stroke-width:3;"/><polygon fill="#E2E2F0" points="154,64.5938,206,64.5938,230,88.5938,206,112.5938,154,112.5938,130,88.5938" style="stroke:#006400;stroke-width:3;"/><polygon fill="#E2E2F0" points="254,64.5938,806,64.5938,830,88.5938,806,112.5938,254,112.5938,230,88.5938" style="stroke:#006400;stroke-width:3;"/><polygon fill="#E2E2F0" points="854,64.5938,1206,64.5938,1230,88.5938,1206,112.5938,854,112.5938,830,88.5938" style="stroke:#006400;stroke-width:3;"/><polygon fill="#E2E2F0" points="1254,64.5938,1430,64.5938,1430,112.5938,1254,112.5938,1230,88.5938" style="stroke:#E2E2F0;stroke-width:3;"/><path d="M1430,64.5938 L1254,64.5938 L1230,88.5938 L1254,112.5938 L1430,112.5938" fill="#E2E2F0" style="stroke:#006400;stroke-width:3;"/><text fill="#333333" font-family="sans-serif" font-size="24" font-weight="bold" lengthAdjust="spacing" textLength="90.0703" x="34.9648" y="96.9023">Closed</text><text fill="#333333" font-family="sans-serif" font-size="24" font-weight="bold" lengthAdjust="spacing" textLength="70.9453" x="144.5273" y="96.9023">Open</text><text fill="#333333" font-family="sans-serif" font-size="24" font-weight="bold" lengthAdjust="spacing" textLength="90.0703" x="484.9648" y="96.9023">Closed</text><text fill="#333333" font-family="sans-serif" font-size="24" font-weight="bold" lengthAdjust="spacing" textLength="90.0703" x="984.9648" y="96.9023">Closed</text><text fill="#333333" font-family="sans-serif" font-size="24" font-weight="bold" lengthAdjust="spacing" textLength="90.0703" x="1254" y="96.9023">Closed</text><line style="stroke:#333333;stroke-width:1;" x1="20" x2="1440" y1="132.5938" y2="132.5938"/><text fill="#333333" font-family="sans-serif" font-size="28" font-weight="bold" lengthAdjust="spacing" textLength="175.5469" x="30" y="158.584">Oven State</text><line style="stroke:#333333;stroke-width:1;" x1="20" x2="207.5469" y1="167.1875" y2="167.1875"/><line style="stroke:#333333;stroke-width:1;" x1="207.5469" x2="227.5469" y1="167.1875" y2="132.5938"/><polygon fill="#E2E2F0" points="54,177.1875,106,177.1875,130,201.1875,106,225.1875,54,225.1875,30,201.1875" style="stroke:#006400;stroke-width:3;"/><polygon fill="#E2E2F0" points="154,177.1875,206,177.1875,230,201.1875,206,225.1875,154,225.1875,130,201.1875" style="stroke:#006400;stroke-width:3;"/><polygon fill="#E2E2F0" points="254,177.1875,306,177.1875,330,201.1875,306,225.1875,254,225.1875,230,201.1875" style="stroke:#006400;stroke-width:3;"/><polygon fill="#E2E2F0" points="354,177.1875,406,177.1875,430,201.1875,406,225.1875,354,225.1875,330,201.1875" style="stroke:#006400;stroke-width:3;"/><polygon fill="#E2E2F0" points="454,177.1875,706,177.1875,730,201.1875,706,225.1875,454,225.1875,430,201.1875" style="stroke:#006400;stroke-width:3;"/><polygon fill="#E2E2F0" points="754,177.1875,806,177.1875,830,201.1875,806,225.1875,754,225.1875,730,201.1875" style="stroke:#006400;stroke-width:3;"/><polygon fill="#E2E2F0" points="854,177.1875,906,177.1875,930,201.1875,906,225.1875,854,225.1875,830,201.1875" style="stroke:#006400;stroke-width:3;"/><polygon fill="#E2E2F0" points="954,177.1875,1206,177.1875,1230,201.1875,1206,225.1875,954,225.1875,930,201.1875" style="stroke:#006400;stroke-width:3;"/><polygon fill="#E2E2F0" points="1254,177.1875,1306,177.1875,1330,201.1875,1306,225.1875,1254,225.1875,1230,201.1875" style="stroke:#006400;stroke-width:3;"/><polygon fill="#E2E2F0" points="1354,177.1875,1430,177.1875,1430,225.1875,1354,225.1875,1330,201.1875" style="stroke:#E2E2F0;stroke-width:3;"/><path d="M1430,177.1875 L1354,177.1875 L1330,201.1875 L1354,225.1875 L1430,225.1875" fill="#E2E2F0" style="stroke:#006400;stroke-width:3;"/><text fill="#333333" font-family="sans-serif" font-size="24" font-weight="bold" lengthAdjust="spacing" textLength="50.6133" x="54.6934" y="209.4961">Idle</text><text fill="#333333" font-family="sans-serif" font-size="24" font-weight="bold" lengthAdjust="spacing" textLength="90.8672" x="134.5664" y="209.4961">DOpen</text><text fill="#333333" font-family="sans-serif" font-size="24" font-weight="bold" lengthAdjust="spacing" textLength="50.6133" x="254.6934" y="209.4961">Idle</text><text fill="#333333" font-family="sans-serif" font-size="24" font-weight="bold" lengthAdjust="spacing" textLength="33.6563" x="363.1719" y="209.4961">ST</text><text fill="#333333" font-family="sans-serif" font-size="24" font-weight="bold" lengthAdjust="spacing" textLength="109.043" x="525.4785" y="209.4961">Cooking</text><text fill="#333333" font-family="sans-serif" font-size="24" font-weight="bold" lengthAdjust="spacing" textLength="81.4336" x="739.2832" y="209.4961">Pause</text><text fill="#333333" font-family="sans-serif" font-size="24" font-weight="bold" lengthAdjust="spacing" textLength="81.4336" x="839.2832" y="209.4961">Pause</text><text fill="#333333" font-family="sans-serif" font-size="24" font-weight="bold" lengthAdjust="spacing" textLength="109.043" x="1025.4785" y="209.4961">Cooking</text><text fill="#333333" font-family="sans-serif" font-size="24" font-weight="bold" lengthAdjust="spacing" textLength="69.7734" x="1245.1133" y="209.4961">Done</text><text fill="#333333" font-family="sans-serif" font-size="24" font-weight="bold" lengthAdjust="spacing" textLength="50.6133" x="1354" y="209.4961">Idle</text><line style="stroke:#333333;stroke-width:1;" x1="20" x2="1440" y1="245.1875" y2="245.1875"/><text fill="#333333" font-family="sans-serif" font-size="28" font-weight="bold" lengthAdjust="spacing" textLength="172.0879" x="30" y="271.1777">Magnetron</text><line style="stroke:#333333;stroke-width:1;" x1="20" x2="204.0879" y1="279.7813" y2="279.7813"/><line style="stroke:#333333;stroke-width:1;" x1="204.0879" x2="224.0879" y1="279.7813" y2="245.1875"/><polygon fill="#E2E2F0" points="54,289.7813,406,289.7813,430,313.7813,406,337.7813,54,337.7813,30,313.7813" style="stroke:#006400;stroke-width:3;"/><polygon fill="#E2E2F0" points="454,289.7813,706,289.7813,730,313.7813,706,337.7813,454,337.7813,430,313.7813" style="stroke:#006400;stroke-width:3;"/><polygon fill="#E2E2F0" points="754,289.7813,906,289.7813,930,313.7813,906,337.7813,754,337.7813,730,313.7813" style="stroke:#006400;stroke-width:3;"/><polygon fill="#E2E2F0" points="954,289.7813,1206,289.7813,1230,313.7813,1206,337.7813,954,337.7813,930,313.7813" style="stroke:#006400;stroke-width:3;"/><polygon fill="#E2E2F0" points="1254,289.7813,1430,289.7813,1430,337.7813,1254,337.7813,1230,313.7813" style="stroke:#E2E2F0;stroke-width:3;"/><path d="M1430,289.7813 L1254,289.7813 L1230,313.7813 L1254,337.7813 L1430,337.7813" fill="#E2E2F0" style="stroke:#006400;stroke-width:3;"/><text fill="#333333" font-family="sans-serif" font-size="24" font-weight="bold" lengthAdjust="spacing" textLength="41.2852" x="209.3574" y="322.0898">Off</text><text fill="#333333" font-family="sans-serif" font-size="24" font-weight="bold" lengthAdjust="spacing" textLength="37.4883" x="561.2559" y="322.0898">On</text><text fill="#333333" font-family="sans-serif" font-size="24" font-weight="bold" lengthAdjust="spacing" textLength="41.2852" x="809.3574" y="322.0898">Off</text><text fill="#333333" font-family="sans-serif" font-size="24" font-weight="bold" lengthAdjust="spacing" textLength="37.4883" x="1061.2559" y="322.0898">On</text><text fill="#333333" font-family="sans-serif" font-size="24" font-weight="bold" lengthAdjust="spacing" textLength="41.2852" x="1254" y="322.0898">Off</text><line style="stroke:#333333;stroke-width:1;" x1="20" x2="1440" y1="357.7813" y2="357.7813"/><text fill="#333333" font-family="sans-serif" font-size="28" font-weight="bold" lengthAdjust="spacing" textLength="90.6719" x="30" y="383.7715">Timer</text><line style="stroke:#333333;stroke-width:1;" x1="20" x2="122.6719" y1="392.375" y2="392.375"/><line style="stroke:#333333;stroke-width:1;" x1="122.6719" x2="142.6719" y1="392.375" y2="357.7813"/><polygon fill="#E2E2F0" points="54,402.375,306,402.375,330,426.375,306,450.375,54,450.375,30,426.375" style="stroke:#006400;stroke-width:3;"/><polygon fill="#E2E2F0" points="354,402.375,406,402.375,430,426.375,406,450.375,354,450.375,330,426.375" style="stroke:#006400;stroke-width:3;"/><polygon fill="#E2E2F0" points="454,402.375,706,402.375,730,426.375,706,450.375,454,450.375,430,426.375" style="stroke:#006400;stroke-width:3;"/><polygon fill="#E2E2F0" points="754,402.375,906,402.375,930,426.375,906,450.375,754,450.375,730,426.375" style="stroke:#006400;stroke-width:3;"/><polygon fill="#E2E2F0" points="954,402.375,1206,402.375,1230,426.375,1206,450.375,954,450.375,930,426.375" style="stroke:#006400;stroke-width:3;"/><polygon fill="#E2E2F0" points="1254,402.375,1430,402.375,1430,450.375,1254,450.375,1230,426.375" style="stroke:#E2E2F0;stroke-width:3;"/><path d="M1430,402.375 L1254,402.375 L1230,426.375 L1254,450.375 L1430,450.375" fill="#E2E2F0" style="stroke:#006400;stroke-width:3;"/><text fill="#333333" font-family="sans-serif" font-size="24" font-weight="bold" lengthAdjust="spacing" textLength="62.0039" x="148.998" y="434.6836">Zero</text><text fill="#333333" font-family="sans-serif" font-size="24" font-weight="bold" lengthAdjust="spacing" textLength="45.0352" x="357.4824" y="434.6836">Set</text><text fill="#333333" font-family="sans-serif" font-size="24" font-weight="bold" lengthAdjust="spacing" textLength="112.2305" x="523.8848" y="434.6836">Running</text><text fill="#333333" font-family="sans-serif" font-size="24" font-weight="bold" lengthAdjust="spacing" textLength="98.6133" x="780.6934" y="434.6836">Paused</text><text fill="#333333" font-family="sans-serif" font-size="24" font-weight="bold" lengthAdjust="spacing" textLength="112.2305" x="1023.8848" y="434.6836">Running</text><text fill="#333333" font-family="sans-serif" font-size="24" font-weight="bold" lengthAdjust="spacing" textLength="62.0039" x="1254" y="434.6836">Zero</text><line style="stroke:#333333;stroke-width:4;" x1="30" x2="30" y1="470.375" y2="480.375"/><line style="stroke:#333333;stroke-width:4;" x1="130" x2="130" y1="470.375" y2="480.375"/><line style="stroke:#333333;stroke-width:4;" x1="230" x2="230" y1="470.375" y2="480.375"/><line style="stroke:#333333;stroke-width:4;" x1="330" x2="330" y1="470.375" y2="480.375"/><line style="stroke:#333333;stroke-width:4;" x1="430" x2="430" y1="470.375" y2="480.375"/><line style="stroke:#333333;stroke-width:4;" x1="530" x2="530" y1="470.375" y2="480.375"/><line style="stroke:#333333;stroke-width:4;" x1="630" x2="630" y1="470.375" y2="480.375"/><line style="stroke:#333333;stroke-width:4;" x1="730" x2="730" y1="470.375" y2="480.375"/><line style="stroke:#333333;stroke-width:4;" x1="830" x2="830" y1="470.375" y2="480.375"/><line style="stroke:#333333;stroke-width:4;" x1="930" x2="930" y1="470.375" y2="480.375"/><line style="stroke:#333333;stroke-width:4;" x1="1030" x2="1030" y1="470.375" y2="480.375"/><line style="stroke:#333333;stroke-width:4;" x1="1130" x2="1130" y1="470.375" y2="480.375"/><line style="stroke:#333333;stroke-width:4;" x1="1230" x2="1230" y1="470.375" y2="480.375"/><line style="stroke:#333333;stroke-width:4;" x1="1330" x2="1330" y1="470.375" y2="480.375"/><line style="stroke:#333333;stroke-width:4;" x1="1430" x2="1430" y1="470.375" y2="480.375"/><line style="stroke:#333333;stroke-width:4;" x1="30" x2="1430" y1="470.375" y2="470.375"/><text fill="#333333" font-family="sans-serif" font-size="22" lengthAdjust="spacing" textLength="13.9971" x="23.0015" y="502.7959">0</text><text fill="#333333" font-family="sans-serif" font-size="22" lengthAdjust="spacing" textLength="27.9941" x="116.0029" y="502.7959">10</text><text fill="#333333" font-family="sans-serif" font-size="22" lengthAdjust="spacing" textLength="27.9941" x="216.0029" y="502.7959">20</text><text fill="#333333" font-family="sans-serif" font-size="22" lengthAdjust="spacing" textLength="27.9941" x="316.0029" y="502.7959">30</text><text fill="#333333" font-family="sans-serif" font-size="22" lengthAdjust="spacing" textLength="27.9941" x="416.0029" y="502.7959">40</text><text fill="#333333" font-family="sans-serif" font-size="22" lengthAdjust="spacing" textLength="27.9941" x="716.0029" y="502.7959">70</text><text fill="#333333" font-family="sans-serif" font-size="22" lengthAdjust="spacing" textLength="27.9941" x="816.0029" y="502.7959">80</text><text fill="#333333" font-family="sans-serif" font-size="22" lengthAdjust="spacing" textLength="27.9941" x="916.0029" y="502.7959">90</text><text fill="#333333" font-family="sans-serif" font-size="22" lengthAdjust="spacing" textLength="41.9912" x="1209.0044" y="502.7959">120</text><text fill="#333333" font-family="sans-serif" font-size="22" lengthAdjust="spacing" textLength="41.9912" x="1309.0044" y="502.7959">130</text><!--SRC=[dL113e903Bpt5HiVO01DrDicSF5WCCB9smOA8M9hsCNtoou9Iqn4uwtJwKpRqOLgKKJh0A1WAXgDOfKmTokXjB25RwTF994PPT2HhlBiITM4fcDov8JyGDxSSRHr5O0Cm2uGZHPnonfBS9OM7yiMOVAmdRIgmEaik6B7Wpxq1ka3oSiJ1q56NpQ0t0I-bUL-GuPcOBSpDcQ-DLI_NKLUSkc9x038tKnsLhrUUiNnvI3QVxvrz01v-E-SS266XEcNeESnsUHU]--></g></svg>